<svg width="87" height="16" viewBox="0 0 87 16" fill="none" xmlns="http://www.w3.org/2000/svg">
<path d="M0 16V0H9.6V3.2H12.8V6.4H9.6V12.8H12.8V16H9.6V12.8H6.4V9.6H3.2V16H0ZM3.2 6.4H9.472V3.2H3.2V6.4Z" fill="white"/>
<path d="M19.2 16V3.2H22.4V0H28.8V3.2H32V16H28.8V9.6H22.4V16H19.2ZM22.4 6.4H28.8V3.328H22.4V6.4Z" fill="white"/>
<path d="M41.6 16V3.2H38.4V0H48V3.2H44.8V16H41.6Z" fill="white"/>
<path d="M57.6 16V12.8H54.4V3.2H57.6V0H64V3.2H67.2V12.8H64V16H57.6ZM57.6 12.672H64V3.328H57.6V12.672Z" fill="white"/>
<path d="M73.6 16V0H83.2V3.2H86.4V6.4H83.2V12.8H86.4V16H83.2V12.8H80V9.6H76.8V16H73.6ZM76.8 6.4H83.072V3.2H76.8V6.4Z" fill="white"/>
</svg>
